# xmcd CD database file
#
# Track frame offsets:
#	183
#	17583
#	29295
#	49608
#	64205
#	84833
#	101553
#	113958
#	131433
#	148023
#
# Disc length: 2175 seconds
#
# Revision: 0
# Processed by: cddbd v1.5.1PL0 Copyright (c) Steve Scherf et al.
# Submitted via: Feurio! 1.65 - http://www.feurio.com
#
DISCID=7d087d0a
DTITLE=Jo Ann Kelly - Just Restless
DYEAR=1983
DGENRE=Blues
TTITLE0=Feel Like Breaking Up Somebody's Home
TTITLE1=People Sure Act Funny
TTITLE2=Help Me Through The Day
TTITLE3=Satisfied With Jesus
TTITLE4=Roll Roll Roll
TTITLE5=Me
TTITLE6=Don't Mess Up A Good Thing
TTITLE7=Clean Up Woman
TTITLE8=Feel So Worried
TTITLE9=Restless
EXTD=ARD Appaloosa 028-2 1983
EXTT0=
EXTT1=
EXTT2=
EXTT3=
EXTT4=
EXTT5=
EXTT6=
EXTT7=
EXTT8=
EXTT9=
PLAYORDER=
